<?xml version="1.0" encoding="UTF-8"?>
<svg version="1.1" xmlns="http://www.w3.org/2000/svg" width="1024" height="1024">
<path d="M0 0 C13.56397356 11.49133544 23.70968163 27.18454351 28.76953125 44.2109375 C29.08921875 45.23316406 29.40890625 46.25539063 29.73828125 47.30859375 C35.78238388 67.98217205 36.25713841 89.25990386 36.45703125 110.6484375 C36.49031274 113.1451989 36.52481174 115.64194438 36.56054688 118.13867188 C36.64418169 124.16265003 36.7130273 130.1866468 36.76953125 136.2109375 C37.25164062 135.6334375 37.73375 135.0559375 38.23046875 134.4609375 C38.86210938 133.7184375 39.49375 132.9759375 40.14453125 132.2109375 C40.77101563 131.4684375 41.3975 130.7259375 42.04296875 129.9609375 C42.61273437 129.3834375 43.1825 128.8059375 43.76953125 128.2109375 C44.42953125 128.2109375 45.08953125 128.2109375 45.76953125 128.2109375 C46.42953125 126.8909375 47.08953125 125.5709375 47.76953125 124.2109375 C48.42953125 124.2109375 49.08953125 124.2109375 49.76953125 124.2109375 C50.09953125 123.2209375 50.42953125 122.2309375 50.76953125 121.2109375 C52.78362485 119.62593341 54.76640941 118.18739299 56.89453125 116.7734375 C57.48983643 116.37165283 58.0851416 115.96986816 58.69848633 115.5559082 C79.69373534 101.48923487 104.09132644 97.23400243 128.85107422 102.01171875 C130.82477268 102.40709322 132.79720894 102.80875437 134.76953125 103.2109375 C135.59839844 103.34242188 136.42726563 103.47390625 137.28125 103.609375 C150.00229968 105.79012637 162.99681733 112.93060847 172.76953125 121.2109375 C173.09953125 122.2009375 173.42953125 123.1909375 173.76953125 124.2109375 C175.76969591 125.41975846 175.76969591 125.41975846 177.76953125 126.2109375 C177.76953125 126.8709375 177.76953125 127.5309375 177.76953125 128.2109375 C179.08953125 128.8709375 180.40953125 129.5309375 181.76953125 130.2109375 C181.76953125 130.8709375 181.76953125 131.5309375 181.76953125 132.2109375 C182.42953125 132.2109375 183.08953125 132.2109375 183.76953125 132.2109375 C188.26564094 137.23684355 191.12398378 143.67975949 194.01953125 149.7109375 C194.5312085 150.75979126 194.5312085 150.75979126 195.05322266 151.82983398 C197.1027039 156.21262567 198.39378128 160.40249929 199.32763672 165.14697266 C199.75901981 167.38740069 199.75901981 167.38740069 200.82421875 170.140625 C202.16380654 174.49151758 202.50906213 178.81212263 202.89453125 183.3359375 C202.97872314 184.29137451 203.06291504 185.24681152 203.1496582 186.23120117 C203.69903666 192.99796293 203.95083409 199.73506345 203.95703125 206.5234375 C203.95783691 207.38275879 203.95864258 208.24208008 203.95947266 209.12744141 C203.90465456 215.07581419 203.90465456 215.07581419 202.76953125 216.2109375 C200.57994087 216.30792248 198.38715595 216.33280477 196.19541931 216.33119202 C195.50036099 216.33204644 194.80530266 216.33290087 194.08918196 216.33378118 C191.74294139 216.33543799 189.39677117 216.32991137 187.05053711 216.32446289 C185.37553407 216.32418104 183.70053092 216.32433872 182.02552795 216.3249054 C177.46373846 216.32519344 172.90197502 216.31929564 168.3401916 216.31233144 C163.57824125 216.30609901 158.81629035 216.30549419 154.05433655 216.30430603 C145.03037559 216.30119239 136.00642669 216.29297856 126.98247105 216.28295654 C116.71178638 216.27179643 106.44110116 216.26628521 96.17041194 216.26126111 C75.03677831 216.25079597 53.90315554 216.23319589 32.76953125 216.2109375 C33.40362065 219.75047628 34.04133551 223.2893527 34.6796875 226.828125 C34.94779236 228.32508911 34.94779236 228.32508911 35.22131348 229.85229492 C37.04786955 239.95798315 39.54880204 249.02262414 43.62890625 258.4609375 C44.96267613 261.67660186 45.92631099 264.83805646 46.76953125 268.2109375 C47.42953125 268.2109375 48.08953125 268.2109375 48.76953125 268.2109375 C49.92129325 269.85249519 50.99087586 271.55206147 52.01953125 273.2734375 C54.2175133 276.84919027 56.41237859 280.14024022 59.20703125 283.2734375 C61.76953125 286.2109375 61.76953125 286.2109375 61.76953125 288.2109375 C63.08953125 288.8709375 64.40953125 289.5309375 65.76953125 290.2109375 C65.76953125 290.8709375 65.76953125 291.5309375 65.76953125 292.2109375 C66.33414062 292.47390625 66.89875 292.736875 67.48046875 293.0078125 C69.95902762 294.31053628 72.12588102 295.82041518 74.39453125 297.4609375 C83.85184596 304.10587291 92.73320442 308.62605176 103.76953125 312.2109375 C104.61257813 312.51 105.455625 312.8090625 106.32421875 313.1171875 C135.33049012 322.88360884 172.87847103 318.31781373 200.06640625 305.09375 C216.72228459 296.30633832 228.0842268 282.68518162 233.86328125 264.83203125 C234.59479065 261.96817194 235.21253034 259.11320542 235.76953125 256.2109375 C236.16165817 254.46010327 236.55716324 252.71002 236.95703125 250.9609375 C237.22515625 249.7234375 237.49328125 248.4859375 237.76953125 247.2109375 C239.08953125 246.8809375 240.40953125 246.5509375 241.76953125 246.2109375 C245.04038594 259.65778457 239.33091467 273.47017281 232.58618164 284.96142578 C231.06464423 287.45703967 229.53955767 289.88279464 227.76953125 292.2109375 C227.10953125 292.2109375 226.44953125 292.2109375 225.76953125 292.2109375 C225.68445313 292.79488281 225.599375 293.37882812 225.51171875 293.98046875 C224.55891134 296.84390577 223.18687676 297.96295896 220.89453125 299.8984375 C220.19585938 300.50042969 219.4971875 301.10242188 218.77734375 301.72265625 C216.76953125 303.2109375 216.76953125 303.2109375 213.76953125 304.2109375 C213.76953125 304.8709375 213.76953125 305.5309375 213.76953125 306.2109375 C211.6875 307.83203125 211.6875 307.83203125 208.95703125 309.6484375 C205.4197652 311.97021804 205.4197652 311.97021804 202.26171875 314.75390625 C198.82028431 318.11425977 193.99801498 320.00161068 189.76953125 322.2109375 C188.96 322.64792969 188.15046875 323.08492187 187.31640625 323.53515625 C180.3905343 327.17009236 173.19993753 329.79486723 165.76953125 332.2109375 C164.66351562 332.57316406 163.5575 332.93539063 162.41796875 333.30859375 C126.81236405 343.8777518 81.92661664 342.86427969 46.76953125 331.2109375 C45.65964844 330.85386719 44.54976562 330.49679687 43.40625 330.12890625 C27.6816122 324.58709741 14.26771498 316.2115084 2.76953125 304.2109375 C1.91617188 303.34210938 1.0628125 302.47328125 0.18359375 301.578125 C-4.86272637 296.23003159 -8.75282959 290.67669476 -12.23046875 284.2109375 C-12.65972656 283.45554687 -13.08898437 282.70015625 -13.53125 281.921875 C-20.37662246 269.24839905 -23.05486556 255.29355817 -25.23046875 241.2109375 C-25.39606293 240.30762695 -25.5616571 239.40431641 -25.73226929 238.47363281 C-28.56037276 219.95245679 -27.39455181 200.54937891 -27.42969894 181.85394287 C-27.44054822 176.2347924 -27.46083099 170.61569857 -27.4828186 164.99658203 C-27.54419399 149.03355498 -27.59870773 133.07053466 -27.63183594 117.10742188 C-27.65028374 108.25588041 -27.67933221 99.40443768 -27.71984065 90.55296898 C-27.74071537 85.89126536 -27.75634001 81.22968492 -27.75864792 76.56793213 C-26.79484 32.65050163 -26.79484 32.65050163 -47.23046875 -4.7890625 C-59.03010835 -15.85966258 -77.35122648 -19.11691758 -93.10546875 -18.88012695 C-111.52449163 -18.09080072 -131.02607824 -12.22966751 -144.23046875 1.2109375 C-153.61998321 13.09708586 -156.44865014 24.7096006 -154.9921875 39.65625 C-154.7853082 41.18159886 -154.51849307 42.6988098 -154.23046875 44.2109375 C-153.57046875 44.2109375 -152.91046875 44.2109375 -152.23046875 44.2109375 C-151.98296875 44.9946875 -151.73546875 45.7784375 -151.48046875 46.5859375 C-149.5750115 50.58739773 -146.8538563 50.97822495 -142.77734375 52.5 C-141.51263802 52.94791661 -140.24698671 53.39317106 -138.98046875 53.8359375 C-138.33078125 54.06539063 -137.68109375 54.29484375 -137.01171875 54.53125 C-135.41878437 55.09346213 -133.82473646 55.65251753 -132.23046875 56.2109375 C-131.69264054 65.71256924 -133.20888417 73.4096779 -139.60546875 80.7109375 C-146.2351187 87.72788659 -152.70927239 89.76567973 -162.10546875 90.5234375 C-171.82266882 90.17639464 -180.02433952 86.68381148 -187.23046875 80.2109375 C-194.47177812 72.38910121 -196.89553216 61.418159 -196.51953125 50.94140625 C-194.45606619 31.45002686 -186.46614585 15.66586448 -172.23046875 2.2109375 C-171.57046875 2.2109375 -170.91046875 2.2109375 -170.23046875 2.2109375 C-170.23046875 1.5509375 -170.23046875 0.8909375 -170.23046875 0.2109375 C-158.83031664 -9.88566292 -144.55009507 -16.15238716 -130.23046875 -20.7890625 C-129.55169678 -21.02842529 -128.8729248 -21.26778809 -128.17358398 -21.5144043 C-85.51851709 -36.39560575 -35.12223061 -28.17159653 0 0 Z M61.76953125 128.2109375 C60.73343729 129.32424039 59.72886531 130.46834759 58.76953125 131.6484375 C57.03977248 133.76640918 55.3005064 135.66420311 53.328125 137.5703125 C44.78857705 146.38364749 40.60133476 157.79934767 36.76953125 169.2109375 C36.43953125 170.14035156 36.10953125 171.06976562 35.76953125 172.02734375 C32.29332645 182.43924562 32.61188348 193.3507575 32.76953125 204.2109375 C37.45105445 205.40596042 41.96912237 205.33413393 46.76318359 205.29614258 C47.65975174 205.29296021 48.55631989 205.28977783 49.48005676 205.28649902 C52.43859635 205.27393156 55.39698949 205.25304924 58.35546875 205.23046875 C59.36817463 205.22351171 60.38088051 205.21655468 61.42427444 205.20938683 C66.78161293 205.17202976 72.13885133 205.12803834 77.49609375 205.07885742 C83.02291698 205.02947722 88.54959579 205.00330813 94.07658958 204.98242664 C98.33359589 204.96203717 102.59031978 204.92415396 106.84715652 204.881567 C108.88440072 204.86425285 110.92171234 204.85353793 112.95902634 204.84961891 C115.81222782 204.84252088 118.66415302 204.81056356 121.51708984 204.77270508 C122.35368637 204.7761644 123.1902829 204.77962372 124.05223083 204.78318787 C129.7414479 204.67187004 133.07417398 203.46110748 137.76953125 200.2109375 C139.73245891 198.03934236 139.73245891 198.03934236 141.08203125 195.6484375 C141.55253906 194.88402344 142.02304687 194.11960937 142.5078125 193.33203125 C142.92417969 192.63207031 143.34054687 191.93210937 143.76953125 191.2109375 C144.75953125 189.7259375 144.75953125 189.7259375 145.76953125 188.2109375 C151.25289186 172.56134627 152.92284704 153.57081802 145.76953125 138.2109375 C143.98153205 135.01739883 142.02117036 132.09303556 139.76953125 129.2109375 C139.15207031 128.37820313 138.53460937 127.54546875 137.8984375 126.6875 C129.77199608 117.23398833 118.00283092 114.31905185 106.08203125 113.3359375 C89.49974728 112.41207302 74.42327286 117.23999055 61.76953125 128.2109375 Z " fill="#1C1C1C" transform="translate(534.23046875,347.7890625)"/>
<path d="M0 0 C0.69714111 0.4326416 1.39428223 0.8652832 2.11254883 1.31103516 C3.76231181 2.37484423 5.35668631 3.52369773 6.9375 4.6875 C6.9375 5.3475 6.9375 6.0075 6.9375 6.6875 C7.52144531 6.95820313 8.10539063 7.22890625 8.70703125 7.5078125 C10.92633085 8.68159267 12.70311162 9.95328326 14.625 11.5625 C15.52798828 12.30113281 15.52798828 12.30113281 16.44921875 13.0546875 C17.9375 14.6875 17.9375 14.6875 18.39453125 16.7578125 C18.57371094 17.39460938 18.75289062 18.03140625 18.9375 18.6875 C20.26413416 19.36740001 21.59831084 20.03267589 22.9375 20.6875 C25.26748017 23.82132334 27.06197595 27.26593586 28.9375 30.6875 C29.31132812 31.34105469 29.68515625 31.99460937 30.0703125 32.66796875 C36.23999928 44.0600282 39.10730183 57.55129088 39.53515625 70.41015625 C39.57238297 71.37985855 39.60960968 72.34956085 39.64796448 73.34864807 C40.25590294 90.93010056 40.27783915 108.53754068 40.41430664 126.12768555 C40.44647481 130.21975502 40.48779158 134.31165355 40.53450203 138.40358162 C40.55023963 139.93379688 40.56268629 141.4640505 40.57140923 142.99432182 C40.65431915 162.29773924 40.65431915 162.29773924 45.25390625 180.890625 C45.9375 182.6875 45.9375 182.6875 46.3984375 184.84375 C46.77650114 186.90736474 46.77650114 186.90736474 49 187.9375 C49.9590625 188.30875 49.9590625 188.30875 50.9375 188.6875 C50.9375 189.3475 50.9375 190.0075 50.9375 190.6875 C51.700625 190.831875 52.46375 190.97625 53.25 191.125 C55.9375 191.6875 55.9375 191.6875 58.9375 192.6875 C67.66892028 193.79711799 75.29291 190.64344168 82.9375 186.6875 C82.9375 186.0275 82.9375 185.3675 82.9375 184.6875 C85.9375 182.6875 85.9375 182.6875 88.125 183.0625 C88.723125 183.26875 89.32125 183.475 89.9375 183.6875 C84.76643975 194.70306091 74.84976447 200.3066639 63.9375 204.6875 C63.18855469 205.02910156 62.43960938 205.37070312 61.66796875 205.72265625 C58.16435564 206.96069979 54.67214712 207.45248561 51 207.875 C50.25290771 207.96104492 49.50581543 208.04708984 48.73608398 208.13574219 C29.47106932 210.10828325 11.16436276 205.90410983 -4.0625 193.6875 C-4.3925 192.6975 -4.7225 191.7075 -5.0625 190.6875 C-5.7225 190.6875 -6.3825 190.6875 -7.0625 190.6875 C-8.4296875 188.96484375 -8.4296875 188.96484375 -9.9375 186.625 C-10.42992187 185.87089844 -10.92234375 185.11679687 -11.4296875 184.33984375 C-13.38527233 181.16318801 -15.22631229 177.93461117 -17.0625 174.6875 C-17.88492188 175.47253906 -18.70734375 176.25757813 -19.5546875 177.06640625 C-26.05079517 183.20471476 -32.51525165 188.84685106 -40.0625 193.6875 C-40.74828125 194.14640625 -41.4340625 194.6053125 -42.140625 195.078125 C-62.66514304 208.4917864 -88.80888625 212.00565976 -112.6875 207.4375 C-115.15357251 206.88780286 -117.61293476 206.30662089 -120.0625 205.6875 C-121.15304687 205.43226563 -122.24359375 205.17703125 -123.3671875 204.9140625 C-136.8233332 201.32795032 -148.63631455 193.75374822 -159.0625 184.6875 C-159.7328125 184.171875 -160.403125 183.65625 -161.09375 183.125 C-179.23811135 168.72471321 -188.99458625 143.25752097 -192.65234375 121.1171875 C-194.50928887 104.80217449 -194.37896491 86.55482501 -190.0625 70.6875 C-189.88557617 69.99414551 -189.70865234 69.30079102 -189.52636719 68.58642578 C-184.97455245 50.81548069 -176.61886611 35.91491299 -165.0625 21.6875 C-164.6396875 21.11773437 -164.216875 20.54796875 -163.78125 19.9609375 C-151.33158852 3.94338523 -129.07844 -7.45738394 -110.0625 -13.3125 C-108.37447266 -13.83457031 -108.37447266 -13.83457031 -106.65234375 -14.3671875 C-70.67823643 -24.73196711 -31.87628196 -19.8040489 0 0 Z M-101.0625 8.6875 C-104.31562005 12.88455817 -107.2381856 17.19810472 -110.0625 21.6875 C-110.6915625 22.68265625 -111.320625 23.6778125 -111.96875 24.703125 C-117.45799659 34.09262574 -120.3480693 44.21166354 -123.0625 54.6875 C-123.25247559 55.39841797 -123.44245117 56.10933594 -123.63818359 56.84179688 C-126.40090693 68.01491207 -126.227008 79.61210605 -126.19287109 91.05322266 C-126.18750555 93.18529363 -126.1928573 95.31715405 -126.19921875 97.44921875 C-126.20766812 109.51003493 -125.83824784 121.2228091 -122.75 132.9375 C-122.54955078 133.75734375 -122.34910156 134.5771875 -122.14257812 135.421875 C-118.59486883 149.3051708 -111.77639433 159.32840235 -102.0625 169.6875 C-101.27875 170.615625 -100.495 171.54375 -99.6875 172.5 C-95.60354833 175.90329306 -90.96146262 177.70881036 -86.0625 179.6875 C-85.01449219 180.15542969 -85.01449219 180.15542969 -83.9453125 180.6328125 C-69.61418556 186.3764159 -49.60700831 184.52683967 -35.53515625 178.90234375 C-32.11098119 177.22000813 -29.02144981 175.19629628 -25.9375 172.95703125 C-24.0625 171.6875 -24.0625 171.6875 -21.0625 170.6875 C-17.949474 165.93157109 -19.52089519 161.01847377 -20.40234375 155.76171875 C-22.44098441 142.02022795 -22.53750271 128.38468275 -22.61163712 114.5165062 C-22.65259211 108.33625354 -22.74499179 102.15636205 -22.828125 95.9765625 C-22.83680414 95.30517683 -22.84548328 94.63379116 -22.85442543 93.94206047 C-22.46594389 48.05557458 -22.46594389 48.05557458 -35.0625 4.6875 C-35.73925781 3.26244141 -35.73925781 3.26244141 -36.4296875 1.80859375 C-40.2365916 -5.40731769 -45.8201443 -9.69132215 -53.0625 -13.3125 C-73.28722956 -15.00191655 -87.83928602 -6.41569168 -101.0625 8.6875 Z " fill="#1D1D1D" transform="translate(433.0625,477.3125)"/>
<path d="M0 0 C2.87596614 1.43798307 2.97174329 2.96744604 4 6 C4.71897219 8.72703905 5.3830984 11.43795031 6 14.1875 C6.165 14.87263672 6.33 15.55777344 6.5 16.26367188 C10.49195152 33.96236317 10.39615469 52.0819774 10.625 70.125 C10.66327811 72.64454329 10.70233513 75.16407487 10.7421875 77.68359375 C10.83709111 83.78895683 10.92243261 89.89439331 11 96 C11.48210938 95.4225 11.96421875 94.845 12.4609375 94.25 C13.09257813 93.5075 13.72421875 92.765 14.375 92 C15.00148438 91.2575 15.62796875 90.515 16.2734375 89.75 C16.84320312 89.1725 17.41296875 88.595 18 88 C18.66 88 19.32 88 20 88 C20.66 86.68 21.32 85.36 22 84 C22.66 84 23.32 84 24 84 C24.495 82.515 24.495 82.515 25 81 C27.0140936 79.41499591 28.99687816 77.97645549 31.125 76.5625 C31.72030518 76.16071533 32.31561035 75.75893066 32.92895508 75.3449707 C53.92420409 61.27829737 78.32179519 57.02306493 103.08154297 61.80078125 C105.05524143 62.19615572 107.02767769 62.59781687 109 63 C110.24330078 63.19722656 110.24330078 63.19722656 111.51171875 63.3984375 C124.23276843 65.57918887 137.22728608 72.71967097 147 81 C147.33 81.99 147.66 82.98 148 84 C150.00016466 85.20882096 150.00016466 85.20882096 152 86 C152 86.66 152 87.32 152 88 C153.32 88.66 154.64 89.32 156 90 C156 90.66 156 91.32 156 92 C156.66 92 157.32 92 158 92 C162.49610969 97.02590605 165.35445253 103.46882199 168.25 109.5 C168.76167725 110.54885376 168.76167725 110.54885376 169.28369141 111.61889648 C171.33317265 116.00168817 172.62425003 120.19156179 173.55810547 124.93603516 C173.98948856 127.17646319 173.98948856 127.17646319 175.0546875 129.9296875 C176.39427529 134.28058008 176.73953088 138.60118513 177.125 143.125 C177.25128784 144.55815552 177.25128784 144.55815552 177.38012695 146.02026367 C177.92950541 152.78702543 178.18130284 159.52412595 178.1875 166.3125 C178.18830566 167.17182129 178.18911133 168.03114258 178.18994141 168.91650391 C178.13512331 174.86487669 178.13512331 174.86487669 177 176 C174.81040962 176.09698498 172.6176247 176.12186727 170.42588806 176.12025452 C169.73082974 176.12110894 169.03577141 176.12196337 168.31965071 176.12284368 C165.97341014 176.12450049 163.62723992 176.11897387 161.28100586 176.11352539 C159.60600282 176.11324354 157.93099967 176.11340122 156.2559967 176.1139679 C151.69420721 176.11425594 147.13244377 176.10835814 142.57066035 176.10139394 C137.80871 176.09516151 133.0467591 176.09455669 128.2848053 176.09336853 C119.26084434 176.09025489 110.23689544 176.08204106 101.2129398 176.07201904 C90.94225513 176.06085893 80.67156991 176.05534771 70.40088069 176.05032361 C49.26724706 176.03985847 28.13362429 176.02225839 7 176 C7.24447876 176.92377441 7.24447876 176.92377441 7.49389648 177.86621094 C8.29794679 181.256177 8.05792369 184.52457841 8 188 C5.88389463 184.55614223 5.81370034 181.93375314 5.9375 177.9375 C6.03454033 174.52421173 6.0851809 172.25554271 5 169 C5.99 168.01 5.99 168.01 7 167 C6.67 166.67 6.34 166.34 6 166 C5.89800486 163.1981334 5.85876085 160.42681251 5.875 157.625 C5.87838379 156.81168213 5.88176758 155.99836426 5.88525391 155.16040039 C6.00169375 141.51121411 6.00169375 141.51121411 7 137 C7.66 136.67 8.32 136.34 9 136 C8.9278125 136.93199219 8.855625 137.86398437 8.78125 138.82421875 C8.6884375 140.09910156 8.595625 141.37398437 8.5 142.6875 C8.4071875 143.92886719 8.314375 145.17023438 8.21875 146.44921875 C7.9902332 150.23033662 7.97799681 153.9967998 7.98632812 157.78442383 C7.98928894 159.53267204 7.98928894 159.53267204 7.99230957 161.3162384 C7.99484741 162.20187973 7.99738525 163.08752106 8 164 C20.56102047 163.93880514 33.12183289 163.8617104 45.68262768 163.76428509 C51.5150483 163.71954737 57.34739851 163.6802986 63.17993164 163.65356445 C68.80808669 163.62756564 74.43597129 163.58718714 80.06395912 163.53681374 C82.21172028 163.52012192 84.35952823 163.50862209 86.5073452 163.50238609 C89.5145443 163.49277036 92.52104788 163.46474073 95.52807617 163.43237305 C96.86164406 163.43452568 96.86164406 163.43452568 98.22215271 163.4367218 C103.05615124 163.36308149 105.96493061 162.92353626 110 160 C110.66 160 111.32 160 112 160 C112.28101563 159.40703125 112.56203125 158.8140625 112.8515625 158.203125 C113.89336165 156.20457153 115.0466048 154.56067881 116.375 152.75 C124.43479797 139.71560863 124.91649816 121.77761045 122.3046875 107.08984375 C118.96194937 95.08126769 111.96668854 86.04358266 101.49609375 79.35546875 C88.85183438 72.4891808 71.6590554 72.54688693 58.00976562 76.32373047 C50.83788092 78.73701043 43.27020273 82.54218487 38 88 C37.34 88 36.68 88 36 88 C35.34 89.32 34.68 90.64 34 92 C33.34 92 32.68 92 32 92 C31.34 93.32 30.68 94.64 30 96 C29.34 95.67 28.68 95.34 28 95 C28.99 94.01 28.99 94.01 30 93 C29.01 93 28.02 93 27 93 C25.515 92.505 25.515 92.505 24 92 C24 91.34 24 90.68 24 90 C22.35 90 20.7 90 19 90 C18.7525 90.7425 18.505 91.485 18.25 92.25 C16.87610296 95.27257349 15.59436166 96.93977162 13 99 C11.68 99 10.36 99 9 99 C8.98969254 98.31761765 8.97938507 97.63523529 8.96876526 96.93217468 C8.86076179 89.84343768 8.74615869 82.75482937 8.62768555 75.66625977 C8.58431696 73.01915168 8.54264332 70.37201528 8.50268555 67.72485352 C8.44502977 63.924555 8.38132156 60.12439932 8.31640625 56.32421875 C8.29969376 55.13664474 8.28298126 53.94907074 8.26576233 52.72550964 C8.24581711 51.62459488 8.22587189 50.52368011 8.20532227 49.3894043 C8.18977798 48.41899704 8.1742337 47.44858978 8.15821838 46.44877625 C8.09534871 43.86204325 8.09534871 43.86204325 7 41 C6.81018289 39.45701569 6.6596199 37.90900074 6.53515625 36.359375 C6.41817383 35.00005859 6.41817383 35.00005859 6.29882812 33.61328125 C6.14258325 31.72026481 5.98889327 29.82703557 5.83789062 27.93359375 C5.38100257 22.68123837 4.52734453 18.03576355 3 13 C3 11.68 3 10.36 3 9 C2.34 9 1.68 9 1 9 C0.67 6.03 0.34 3.06 0 0 Z " fill="#2B2B2B" transform="translate(560,388)"/>
<path d="M0 0 C0 0.33 0 0.66 0 1 C-1.95643433 0.75769653 -1.95643433 0.75769653 -3.95239258 0.51049805 C-8.56952404 -0.00051311 -13.11962337 -0.16102595 -17.76171875 -0.16796875 C-18.95315239 -0.17296135 -18.95315239 -0.17296135 -20.1686554 -0.17805481 C-21.83158801 -0.18307501 -23.49453052 -0.18546467 -25.1574707 -0.18530273 C-27.69173635 -0.18750368 -30.22557584 -0.20575052 -32.75976562 -0.22460938 C-34.3854152 -0.22754154 -36.01106681 -0.22952752 -37.63671875 -0.23046875 C-38.38684738 -0.23765427 -39.13697601 -0.24483978 -39.90983582 -0.25224304 C-44.30898862 -0.23321419 -47.95428571 0.23089933 -52 2 C-52.33 2.66 -52.66 3.32 -53 4 C-46.4 4 -39.8 4 -33 4 C-33 4.33 -33 4.66 -33 5 C-34.19753906 5.09796875 -35.39507812 5.1959375 -36.62890625 5.296875 C-56.422585 7.0524527 -76.50020463 11.24081652 -91 26 C-100.38951446 37.88614836 -103.21818139 49.4986631 -101.76171875 64.4453125 C-101.55483945 65.97066136 -101.28802432 67.4878723 -101 69 C-100.34 69 -99.68 69 -99 69 C-98.7525 69.78375 -98.505 70.5675 -98.25 71.375 C-96.34454275 75.37646023 -93.62338755 75.76728745 -89.546875 77.2890625 C-88.28216927 77.73697911 -87.01651796 78.18223356 -85.75 78.625 C-85.1003125 78.85445313 -84.450625 79.08390625 -83.78125 79.3203125 C-82.18831562 79.88252463 -80.59426771 80.44158003 -79 81 C-78.46217179 90.50163174 -79.97841542 98.1987404 -86.375 105.5 C-93.00464995 112.51694909 -99.47880364 114.55474223 -108.875 115.3125 C-118.59220007 114.96545714 -126.79387077 111.47287398 -134 105 C-141.24130937 97.17816371 -143.66506341 86.2072215 -143.2890625 75.73046875 C-141.22559744 56.23908936 -133.2356771 40.45492698 -119 27 C-118.34 27 -117.68 27 -117 27 C-117 26.34 -117 25.68 -117 25 C-105.59984789 14.90339958 -91.31962632 8.63667534 -77 4 C-76.32122803 3.76063721 -75.64245605 3.52127441 -74.94311523 3.2746582 C-52.00009466 -4.72954238 -23.44776158 -6.9109192 0 0 Z " fill="#202020" transform="translate(481,323)"/>
<path d="M0 0 C3.27085469 13.44684707 -2.43861658 27.25923531 -9.18334961 38.75048828 C-10.70488702 41.24610217 -12.22997358 43.67185714 -14 46 C-14.66 46 -15.32 46 -16 46 C-16.08507812 46.58394531 -16.17015625 47.16789063 -16.2578125 47.76953125 C-17.21061991 50.63296827 -18.58265449 51.75202146 -20.875 53.6875 C-21.57367187 54.28949219 -22.27234375 54.89148438 -22.9921875 55.51171875 C-25 57 -25 57 -28 58 C-28 58.66 -28 59.32 -28 60 C-30.08203125 61.62109375 -30.08203125 61.62109375 -32.8125 63.4375 C-36.34088467 65.74862996 -36.34088467 65.74862996 -39.48046875 68.53125 C-41.57785429 70.55854296 -43.92348455 71.70844417 -46.5 73.0625 C-49.444187 74.61769555 -52.22683295 76.15122196 -55 78 C-57.1875 77.625 -57.1875 77.625 -59 77 C-57.515 76.01 -57.515 76.01 -56 75 C-56.495 72.03 -56.495 72.03 -57 69 C-61.95 69.33 -66.9 69.66 -72 70 C-68.38044575 68.19022287 -65.25911293 67.16707908 -61.375 66.125 C-42.7431945 60.8926484 -24.69037843 51.6576088 -14.76171875 34.22265625 C-10.57541371 26.40947592 -7.65493186 18.74208278 -6 10 C-5.39260142 6.97611643 -4.7369296 3.99684703 -4 1 C-2 0 -2 0 0 0 Z " fill="#464646" transform="translate(776,594)"/>
<path d="M0 0 C-1.32 0.33 -2.64 0.66 -4 1 C-4 1.99 -4 2.98 -4 4 C-4 6 -4 8 -4 10 C-3.01 10.33 -2.02 10.66 -1 11 C-0.505 13.97 -0.505 13.97 0 17 C-3.88433735 13.49156627 -3.88433735 13.49156627 -4.5 10.875 C-4.665 10.25625 -4.83 9.6375 -5 9 C-6.32184405 8.31083345 -7.65714585 7.64727502 -9 7 C-9.78117187 6.36191406 -9.78117187 6.36191406 -10.578125 5.7109375 C-16.6111796 0.89013219 -23.63508122 1.01026766 -30.99902344 1.69140625 C-36.76013284 2.5798936 -42.84375906 4.84375906 -47 9 C-49.625 8.625 -49.625 8.625 -52 8 C-51.67 7.01 -51.34 6.02 -51 5 C-50.34 4.67 -49.68 4.34 -49 4 C-49.33 3.01 -49.66 2.02 -50 1 C-50.66 0.67 -51.32 0.34 -52 0 C-51.67 -0.33 -51.34 -0.66 -51 -1 C-52.64630328 -0.85957123 -54.29204179 -0.71250671 -55.9375 -0.5625 C-56.85402344 -0.48128906 -57.77054687 -0.40007812 -58.71484375 -0.31640625 C-60.96159732 -0.23955024 -60.96159732 -0.23955024 -62 1 C-64.33297433 1.04092937 -66.66705225 1.04241723 -69 1 C-53.01507712 -7.60726617 -15.76271209 -10.50847473 0 0 Z " fill="#9F9F9F" transform="translate(397,463)"/>
<path d="M0 0 C2.87596614 1.43798307 2.97174329 2.96744604 4 6 C4.71897219 8.72703905 5.3830984 11.43795031 6 14.1875 C6.165 14.87263672 6.33 15.55777344 6.5 16.26367188 C10.49195152 33.96236317 10.39615469 52.0819774 10.625 70.125 C10.66327811 72.64454329 10.70233513 75.16407487 10.7421875 77.68359375 C10.83709111 83.78895683 10.92243261 89.89439331 11 96 C11.48210938 95.4225 11.96421875 94.845 12.4609375 94.25 C13.09257813 93.5075 13.72421875 92.765 14.375 92 C15.00148438 91.2575 15.62796875 90.515 16.2734375 89.75 C16.84320312 89.1725 17.41296875 88.595 18 88 C18.66 88 19.32 88 20 88 C20.66 86.68 21.32 85.36 22 84 C22.66 84 23.32 84 24 84 C24.495 82.515 24.495 82.515 25 81 C26.62890625 79.61328125 26.62890625 79.61328125 28.5625 78.3125 C29.20316406 77.87550781 29.84382812 77.43851562 30.50390625 76.98828125 C30.99761719 76.66214844 31.49132812 76.33601563 32 76 C34.66666667 77.33333333 37.33333333 78.66666667 40 80 C40 80.66 40 81.32 40 82 C40.99 82.33 41.98 82.66 43 83 C41.37660195 84.70884005 39.70680947 86.37446717 38 88 C37.34 88 36.68 88 36 88 C35.34 89.32 34.68 90.64 34 92 C33.34 92 32.68 92 32 92 C31.34 93.32 30.68 94.64 30 96 C29.34 95.67 28.68 95.34 28 95 C28.99 94.01 28.99 94.01 30 93 C29.01 93 28.02 93 27 93 C25.515 92.505 25.515 92.505 24 92 C24 91.34 24 90.68 24 90 C22.35 90 20.7 90 19 90 C18.7525 90.7425 18.505 91.485 18.25 92.25 C16.87610296 95.27257349 15.59436166 96.93977162 13 99 C11.68 99 10.36 99 9 99 C8.98969254 98.31761765 8.97938507 97.63523529 8.96876526 96.93217468 C8.86076179 89.84343768 8.74615869 82.75482937 8.62768555 75.66625977 C8.58431696 73.01915168 8.54264332 70.37201528 8.50268555 67.72485352 C8.44502977 63.924555 8.38132156 60.12439932 8.31640625 56.32421875 C8.29969376 55.13664474 8.28298126 53.94907074 8.26576233 52.72550964 C8.24581711 51.62459488 8.22587189 50.52368011 8.20532227 49.3894043 C8.18977798 48.41899704 8.1742337 47.44858978 8.15821838 46.44877625 C8.09534871 43.86204325 8.09534871 43.86204325 7 41 C6.81018289 39.45701569 6.6596199 37.90900074 6.53515625 36.359375 C6.41817383 35.00005859 6.41817383 35.00005859 6.29882812 33.61328125 C6.14258325 31.72026481 5.98889327 29.82703557 5.83789062 27.93359375 C5.38100257 22.68123837 4.52734453 18.03576355 3 13 C3 11.68 3 10.36 3 9 C2.34 9 1.68 9 1 9 C0.67 6.03 0.34 3.06 0 0 Z " fill="#484848" transform="translate(560,388)"/>
<path d="M0 0 C3.27085469 13.44684707 -2.43861658 27.25923531 -9.18334961 38.75048828 C-10.70488702 41.24610217 -12.22997358 43.67185714 -14 46 C-14.66 46 -15.32 46 -16 46 C-16.08507812 46.58394531 -16.17015625 47.16789063 -16.2578125 47.76953125 C-17.21061991 50.63296827 -18.58265449 51.75202146 -20.875 53.6875 C-21.57367187 54.28949219 -22.27234375 54.89148438 -22.9921875 55.51171875 C-25 57 -25 57 -28 58 C-27.67 56.68 -27.34 55.36 -27 54 C-26.34 54.33 -25.68 54.66 -25 55 C-25.495 53.515 -25.495 53.515 -26 52 C-24.515 51.505 -24.515 51.505 -23 51 C-22.67 51.33 -22.34 51.66 -22 52 C-21.34 50.35 -20.68 48.7 -20 47 C-19.01 47 -18.02 47 -17 47 C-17.99 46.34 -18.98 45.68 -20 45 C-22.31 47.31 -24.62 49.62 -27 52 C-27.66 51.67 -28.32 51.34 -29 51 C-28.50371094 50.53851562 -28.00742187 50.07703125 -27.49609375 49.6015625 C-14.93495436 37.54096187 -8.88509638 24.16135336 -5.4453125 7.27734375 C-5.01204248 5.17431771 -4.51272438 3.08507917 -4 1 C-2 0 -2 0 0 0 Z " fill="#A1A1A1" transform="translate(776,594)"/>
<path d="M0 0 C0.33 0 0.66 0 1 0 C1.50196571 2.95801222 2.00165835 5.91637705 2.5 8.875 C2.64308594 9.71675781 2.78617187 10.55851563 2.93359375 11.42578125 C3.13662109 12.63427734 3.13662109 12.63427734 3.34375 13.8671875 C3.46943359 14.61081543 3.59511719 15.35444336 3.72460938 16.12060547 C4 18 4 18 4 20 C4.66 20 5.32 20 6 20 C6.495 22.475 6.495 22.475 7 25 C6.01 24.01 5.02 23.02 4 22 C3.17757812 22.78503906 2.35515625 23.57007813 1.5078125 24.37890625 C-4.9900865 30.51890742 -11.45841208 36.14815931 -19 41 C-20.13308594 41.77537109 -20.13308594 41.77537109 -21.2890625 42.56640625 C-21.99804688 43.03949219 -22.70703125 43.51257813 -23.4375 44 C-24.05496094 44.4125 -24.67242187 44.825 -25.30859375 45.25 C-27 46 -27 46 -30 45 C-29.401875 44.731875 -28.80375 44.46375 -28.1875 44.1875 C-25.95406717 42.97506504 -24.50061801 42.05347727 -23 40 C-23.22757731 37.83700789 -23.22757731 37.83700789 -24 36 C-23.34 36 -22.68 36 -22 36 C-21.67 35.34 -21.34 34.68 -21 34 C-21 34.66 -21 35.32 -21 36 C-20.34 36 -19.68 36 -19 36 C-18.87625 35.401875 -18.7525 34.80375 -18.625 34.1875 C-18 32 -18 32 -16 29 C-17.32 28.34 -18.64 27.68 -20 27 C-19.443125 26.76925781 -18.88625 26.53851562 -18.3125 26.30078125 C-13.46349692 24.22848771 -9.08299203 21.92912213 -4.7265625 18.953125 C-3 18 -3 18 0 18 C0.97186056 14.22054228 0.79071237 11.77784799 0 8 C-0.08977729 5.32663189 -0.04535696 2.67606087 0 0 Z " fill="#515151" transform="translate(412,630)"/>
<path d="M0 0 C-1.73379782 2.14443414 -2.61100321 2.93346108 -5.375 3.40625 C-7.125 3.46875 -8.875 3.53125 -10.625 3.59375 C-13.38899679 4.06653892 -14.26620218 4.85556586 -16 7 C-13.32521756 8.6627026 -11.0004856 9.99983813 -8 11 C-6.65909241 11.65129797 -5.32407669 12.31513275 -4 13 C-4.67804687 13.15855469 -5.35609375 13.31710937 -6.0546875 13.48046875 C-12.15060988 15.0086709 -17.35161567 16.98082744 -22.80859375 20.109375 C-25.35916374 21.14597029 -26.46346514 20.94758933 -29 20 C-29 19.34 -29 18.68 -29 18 C-30.65 17.67 -32.3 17.34 -34 17 C-34.33 15.68 -34.66 14.36 -35 13 C-24.96934278 6.33111618 -12.35080388 -0.34307789 0 0 Z " fill="#3C3C3C" transform="translate(629,450)"/>
<path d="M0 0 C0 0.33 0 0.66 0 1 C-1.95643433 0.75769653 -1.95643433 0.75769653 -3.95239258 0.51049805 C-8.56952404 -0.00051311 -13.11962337 -0.16102595 -17.76171875 -0.16796875 C-18.95315239 -0.17296135 -18.95315239 -0.17296135 -20.1686554 -0.17805481 C-21.83158801 -0.18307501 -23.49453052 -0.18546467 -25.1574707 -0.18530273 C-27.69173635 -0.18750368 -30.22557584 -0.20575052 -32.75976562 -0.22460938 C-34.3854152 -0.22754154 -36.01106681 -0.22952752 -37.63671875 -0.23046875 C-38.38684738 -0.23765427 -39.13697601 -0.24483978 -39.90983582 -0.25224304 C-44.30898862 -0.23321419 -47.95428571 0.23089933 -52 2 C-52.33 2.66 -52.66 3.32 -53 4 C-46.4 4 -39.8 4 -33 4 C-33 4.33 -33 4.66 -33 5 C-34.918125 5.18175781 -34.918125 5.18175781 -36.875 5.3671875 C-38.58336419 5.5361466 -40.29169584 5.70543499 -42 5.875 C-42.83917969 5.95363281 -43.67835938 6.03226562 -44.54296875 6.11328125 C-49.87319092 6.65043542 -54.82180108 7.63731607 -60 9 C-63 9.125 -63 9.125 -65 9 C-62.36095629 7.58622659 -59.92879371 6.62759865 -57 6 C-57.33 4.68 -57.66 3.36 -58 2 C-58.74765625 2.15597656 -59.4953125 2.31195313 -60.265625 2.47265625 C-61.25046875 2.66730469 -62.2353125 2.86195313 -63.25 3.0625 C-64.71179688 3.35833984 -64.71179688 3.35833984 -66.203125 3.66015625 C-68.868119 3.98397535 -70.48871723 3.85503199 -73 3 C-52.4083104 -6.50385674 -21.41908614 -6.31299381 0 0 Z " fill="#C2C2C2" transform="translate(481,323)"/>
<path d="M0 0 C1.24716797 0.00322266 2.49433594 0.00644531 3.77929688 0.00976562 C5.07287109 0.01814453 6.36644531 0.02652344 7.69921875 0.03515625 C9.66858398 0.04192383 9.66858398 0.04192383 11.67773438 0.04882812 C14.91410885 0.06059676 18.15039053 0.07703865 21.38671875 0.09765625 C21.88171875 2.07765625 21.88171875 2.07765625 22.38671875 4.09765625 C20.73671875 4.09765625 19.08671875 4.09765625 17.38671875 4.09765625 C17.38671875 4.75765625 17.38671875 5.41765625 17.38671875 6.09765625 C6.82671875 6.09765625 -3.73328125 6.09765625 -14.61328125 6.09765625 C-11.61328125 1.09765625 -11.61328125 1.09765625 -9.33911133 0.29125977 C-6.21430796 0.06931896 -3.13342091 -0.01430786 0 0 Z " fill="#131313" transform="translate(441.61328125,321.90234375)"/>
<path d="M0 0 C-0.33 1.65 -0.66 3.3 -1 5 C-4.2167227 5.99645846 -7.43461726 6.98825308 -10.65625 7.96875 C-12.53869135 8.54931603 -14.41757468 9.14300503 -16.28125 9.78125 C-19.10522437 10.72257479 -20.5825097 11.14986831 -23.4375 10.125 C-23.953125 9.75375 -24.46875 9.3825 -25 9 C-24.9375 7.1875 -24.9375 7.1875 -24 5 C-19.12590868 2.57535661 -14.51905981 1.29186014 -9.1875 0.25 C-8.52041016 0.11207031 -7.85332031 -0.02585937 -7.16601562 -0.16796875 C-2.25767087 -1.12883543 -2.25767087 -1.12883543 0 0 Z " fill="#151515" transform="translate(425,325)"/>
<path d="M0 0 C-2.12466277 4.93640554 -5.66987612 7.03435245 -10 10 C-10.94617188 10.65226563 -11.89234375 11.30453125 -12.8671875 11.9765625 C-18.55666613 15.76451777 -18.55666613 15.76451777 -21 17 C-21.99 16.67 -22.98 16.34 -24 16 C-23.401875 15.731875 -22.80375 15.46375 -22.1875 15.1875 C-19.95406717 13.97506504 -18.50061801 13.05347727 -17 11 C-17.22757731 8.83700789 -17.22757731 8.83700789 -18 7 C-17.34 7 -16.68 7 -16 7 C-15.67 6.34 -15.34 5.68 -15 5 C-15 5.66 -15 6.32 -15 7 C-14.34 7 -13.68 7 -13 7 C-12.87625 6.401875 -12.7525 5.80375 -12.625 5.1875 C-12 3 -12 3 -10 0 C-11.32 -0.66 -12.64 -1.32 -14 -2 C-7.61396 -4.36005826 -5.96883998 -2.98441999 0 0 Z " fill="#4B4B4B" transform="translate(406,659)"/>
<path d="M0 0 C-1.134375 0.45375 -2.26875 0.9075 -3.4375 1.375 C-7.04721692 2.57095806 -7.04721692 2.57095806 -8 5 C-7.01 5.33 -6.02 5.66 -5 6 C-4.67 6.33 -4.34 6.66 -4 7 C-3.38511719 6.77183594 -2.77023437 6.54367187 -2.13671875 6.30859375 C-1.32847656 6.02113281 -0.52023437 5.73367188 0.3125 5.4375 C1.11300781 5.14746094 1.91351563 4.85742188 2.73828125 4.55859375 C5 4 5 4 8 5 C6.40671875 5.74443359 6.40671875 5.74443359 4.78125 6.50390625 C-2.96666885 10.20210948 -9.99971528 13.68391082 -16 20 C-16.66 19.67 -17.32 19.34 -18 19 C-17.34 18.443125 -16.68 17.88625 -16 17.3125 C-13.74507789 15.15937692 -13.74507789 15.15937692 -13.75 12.25 C-13.87375 11.13625 -13.87375 11.13625 -14 10 C-12.68 9.34 -11.36 8.68 -10 8 C-12.23445853 6.5931187 -13.58545079 5.97696949 -16.25 6.125 C-19.47332262 7.15060265 -22.2776654 8.6205028 -25.23046875 10.2578125 C-25.81441406 10.50273437 -26.39835937 10.74765625 -27 11 C-27.66 10.67 -28.32 10.34 -29 10 C-5.82976058 -2.04175947 -5.82976058 -2.04175947 0 0 Z " fill="#8C8C8C" transform="translate(408,328)"/>
<path d="M0 0 C0.598125 0.20625 1.19625 0.4125 1.8125 0.625 C-2.70510791 10.24855546 -11.45935396 16.68741708 -21.1875 20.625 C-22.1775 20.295 -23.1675 19.965 -24.1875 19.625 C-22.5375 18.965 -20.8875 18.305 -19.1875 17.625 C-19.5175 16.635 -19.8475 15.645 -20.1875 14.625 C-19.5275 14.625 -18.8675 14.625 -18.1875 14.625 C-17.8575 13.965 -17.5275 13.305 -17.1875 12.625 C-16.8575 13.285 -16.5275 13.945 -16.1875 14.625 C-14.5375 13.965 -12.8875 13.305 -11.1875 12.625 C-11.1875 11.305 -11.1875 9.985 -11.1875 8.625 C-12.280625 9.12 -13.37375 9.615 -14.5 10.125 C-20.96537224 12.53659533 -27.47716148 12.72751059 -33.875 10.125 C-34.638125 9.63 -35.40125 9.135 -36.1875 8.625 C-35.5275 8.295 -34.8675 7.965 -34.1875 7.625 C-33.506875 7.934375 -32.82625 8.24375 -32.125 8.5625 C-23.99038959 11.50480589 -16.83166081 8.9234253 -9.1875 5.625 C-7.84747873 4.97188039 -6.51144638 4.31011911 -5.1875 3.625 C-5.1875 2.965 -5.1875 2.305 -5.1875 1.625 C-2.1875 -0.375 -2.1875 -0.375 0 0 Z " fill="#BFBFBF" transform="translate(521.1875,660.375)"/>
<path d="M0 0 C2.87596614 1.43798307 2.97174329 2.96744604 4 6 C4.71897219 8.72703905 5.3830984 11.43795031 6 14.1875 C6.165 14.87263672 6.33 15.55777344 6.5 16.26367188 C10.49195152 33.96236317 10.39615469 52.0819774 10.625 70.125 C10.66327811 72.64454329 10.70233513 75.16407487 10.7421875 77.68359375 C10.83709111 83.78895683 10.92243261 89.89439331 11 96 C12.32 95.01 13.64 94.02 15 93 C13.60840337 96.47899158 12.36748512 97.48052501 9 99 C8.98969254 98.31761765 8.97938507 97.63523529 8.96876526 96.93217468 C8.86076179 89.84343768 8.74615869 82.75482937 8.62768555 75.66625977 C8.58431696 73.01915168 8.54264332 70.37201528 8.50268555 67.72485352 C8.44502977 63.924555 8.38132156 60.12439932 8.31640625 56.32421875 C8.29969376 55.13664474 8.28298126 53.94907074 8.26576233 52.72550964 C8.24581711 51.62459488 8.22587189 50.52368011 8.20532227 49.3894043 C8.18977798 48.41899704 8.1742337 47.44858978 8.15821838 46.44877625 C8.09534871 43.86204325 8.09534871 43.86204325 7 41 C6.81018289 39.45701569 6.6596199 37.90900074 6.53515625 36.359375 C6.41817383 35.00005859 6.41817383 35.00005859 6.29882812 33.61328125 C6.14258325 31.72026481 5.98889327 29.82703557 5.83789062 27.93359375 C5.38100257 22.68123837 4.52734453 18.03576355 3 13 C3 11.68 3 10.36 3 9 C2.34 9 1.68 9 1 9 C0.67 6.03 0.34 3.06 0 0 Z " fill="#EDEDED" transform="translate(560,388)"/>
<path d="M0 0 C0.99 0.99 1.98 1.98 3 3 C3.99 2.67 4.98 2.34 6 2 C4.54997977 6.10839064 2.6020866 9.50344613 0 13 C-0.66 13 -1.32 13 -2 13 C-2.08507812 13.58394531 -2.17015625 14.16789063 -2.2578125 14.76953125 C-3.21061991 17.63296827 -4.58265449 18.75202146 -6.875 20.6875 C-7.57367187 21.28949219 -8.27234375 21.89148438 -8.9921875 22.51171875 C-11 24 -11 24 -14 25 C-13.67 23.68 -13.34 22.36 -13 21 C-12.34 21.33 -11.68 21.66 -11 22 C-11.33 21.01 -11.66 20.02 -12 19 C-11.01 18.67 -10.02 18.34 -9 18 C-8.67 18.33 -8.34 18.66 -8 19 C-7.34 17.35 -6.68 15.7 -6 14 C-5.01 14 -4.02 14 -3 14 C-3.99 13.34 -4.98 12.68 -6 12 C-8.31 14.31 -10.62 16.62 -13 19 C-13.66 18.67 -14.32 18.34 -15 18 C-14.50371094 17.53851562 -14.00742187 17.07703125 -13.49609375 16.6015625 C-8.2077827 11.52398111 -4.01566758 6.12389306 0 0 Z " fill="#7C7C7C" transform="translate(762,627)"/>
<path d="M0 0 C-1.73379782 2.14443414 -2.61100321 2.93346108 -5.375 3.40625 C-7.125 3.46875 -8.875 3.53125 -10.625 3.59375 C-13.38899679 4.06653892 -14.26620218 4.85556586 -16 7 C-13.32521756 8.6627026 -11.0004856 9.99983813 -8 11 C-6.65909241 11.65129797 -5.32407669 12.31513275 -4 13 C-5.08667969 13.29003906 -5.08667969 13.29003906 -6.1953125 13.5859375 C-11.18045615 14.92860286 -16.12594691 16.28749486 -21 18 C-20.649375 17.2575 -20.29875 16.515 -19.9375 15.75 C-18.95490707 12.8677274 -18.9673198 11.78823655 -20 9 C-20.66 9 -21.32 9 -22 9 C-22 9.66 -22 10.32 -22 11 C-22.99 10.67 -23.98 10.34 -25 10 C-24.78125 8.1328125 -24.78125 8.1328125 -24 6 C-17.31099062 1.93881573 -7.83532648 -0.50550493 0 0 Z " fill="#505050" transform="translate(629,450)"/>
<path d="M0 0 C2.88164201 1.33586054 5.25276708 2.83637331 7.6875 4.875 C8.28949219 5.36742187 8.89148438 5.85984375 9.51171875 6.3671875 C11.21559215 8.23652893 11.46940434 9.57150448 12 12 C12.8971875 12.433125 12.8971875 12.433125 13.8125 12.875 C17.04339678 14.53660406 18.27594216 16.8711543 20 20 C19.67 20.99 19.34 21.98 19 23 C18.34 22.01 17.68 21.02 17 20 C14.50335747 19.11409459 12.67884659 19 10 19 C9.01879536 15.94736336 9.01879536 14.05263664 10 11 C7.23735711 10.40267181 4.83967231 10 2 10 C1.67 9.34 1.34 8.68 1 8 C2.65 8 4.3 8 6 8 C6 7.34 6 6.68 6 6 C4.35 6.33 2.7 6.66 1 7 C1.20625 6.401875 1.4125 5.80375 1.625 5.1875 C2.30671915 2.71549154 2.30671915 2.71549154 0 0 Z " fill="#606060" transform="translate(440,484)"/>
<path d="M0 0 C3.48584286 0.03134751 6.09479083 0.60989542 9.25 2.1875 C9.25 5.52083333 9.25 8.85416667 9.25 12.1875 C10.24 12.5175 11.23 12.8475 12.25 13.1875 C12.58 15.1675 12.91 17.1475 13.25 19.1875 C9.36566265 15.67906627 9.36566265 15.67906627 8.75 13.0625 C8.585 12.44375 8.42 11.825 8.25 11.1875 C6.94120015 10.47387183 5.60218603 9.81504693 4.25 9.1875 C2.84212021 8.39605737 1.44604979 7.58324481 0.0625 6.75 C-0.63230469 6.33878906 -1.32710938 5.92757813 -2.04296875 5.50390625 C-3.75 4.1875 -3.75 4.1875 -4.75 1.1875 C-3.75 0.1875 -3.75 0.1875 0 0 Z " fill="#525252" transform="translate(383.75,460.8125)"/>
<path d="M0 0 C0.5775 0.20625 1.155 0.4125 1.75 0.625 C1.110625 0.893125 0.47125 1.16125 -0.1875 1.4375 C-2.58131686 2.51167752 -2.58131686 2.51167752 -3.25 5.625 C-3.91 5.625 -4.57 5.625 -5.25 5.625 C-4.92 6.945 -4.59 8.265 -4.25 9.625 C-3.6725 9.480625 -3.095 9.33625 -2.5 9.1875 C-0.41666667 8.66666667 1.66666667 8.14583333 3.75 7.625 C0.45349342 11.31708738 -2.82427631 13.49116894 -7.25 15.625 C-9.6875 15.375 -9.6875 15.375 -11.25 14.625 C-10.26 13.965 -9.27 13.305 -8.25 12.625 C-8.58 10.645 -8.91 8.665 -9.25 6.625 C-14.2 6.955 -19.15 7.285 -24.25 7.625 C-19.47816373 5.23908186 -14.69675283 4.01733975 -9.5625 2.625 C-6.35607534 1.75921134 -6.35607534 1.75921134 -3.953125 0.4765625 C-2.25 -0.375 -2.25 -0.375 0 0 Z " fill="#878787" transform="translate(728.25,656.375)"/>
<path d="M0 0 C0.66 0.99 1.32 1.98 2 3 C0.68 3 -0.64 3 -2 3 C-1.67 3.99 -1.34 4.98 -1 6 C-2.23944276 6.86941494 -3.49207059 7.72005457 -4.75 8.5625 C-5.44609375 9.03816406 -6.1421875 9.51382813 -6.859375 10.00390625 C-9 11 -9 11 -11.140625 10.77734375 C-13 10 -13 10 -15 8 C-14.34 8 -13.68 8 -13 8 C-13 7.34 -13 6.68 -13 6 C-12.34 6 -11.68 6 -11 6 C-10.9175 5.38125 -10.835 4.7625 -10.75 4.125 C-10 2 -10 2 -8.3125 0.75 C-5.37153465 -0.2038266 -3.07158773 -0.33386823 0 0 Z " fill="#1D1D1D" transform="translate(736,656)"/>
<path d="M0 0 C3.6041498 -0.02900455 7.20826962 -0.04680018 10.8125 -0.0625 C11.83666016 -0.07087891 12.86082031 -0.07925781 13.91601562 -0.08789062 C15.39038086 -0.09272461 15.39038086 -0.09272461 16.89453125 -0.09765625 C17.80050049 -0.10289307 18.70646973 -0.10812988 19.63989258 -0.11352539 C22 0 22 0 25 1 C25 1.66 25 2.32 25 3 C19.66666667 3 14.33333333 3 9 3 C8.3503125 3.7115625 8.3503125 3.7115625 7.6875 4.4375 C5.3293094 6.62100982 3.12597439 6.65266951 0 7 C-0.93423645 3.98968256 -1.04449911 3.13349732 0 0 Z " fill="#161616" transform="translate(352,460)"/>
<path d="M0 0 C1.22203125 -0.00515625 2.4440625 -0.0103125 3.703125 -0.015625 C6.75 0.25 6.75 0.25 8.75 2.25 C7.76 2.745 7.76 2.745 6.75 3.25 C7.0903125 4.6421875 7.0903125 4.6421875 7.4375 6.0625 C7.75 9.25 7.75 9.25 6.625 11.1875 C4.75 12.25 4.75 12.25 2.0625 11.9375 C0.9178125 11.5971875 0.9178125 11.5971875 -0.25 11.25 C0.08 10.26 0.41 9.27 0.75 8.25 C1.41 7.92 2.07 7.59 2.75 7.25 C2.42 6.26 2.09 5.27 1.75 4.25 C1.09 3.92 0.43 3.59 -0.25 3.25 C0.08 2.92 0.41 2.59 0.75 2.25 C-0.89630328 2.39042877 -2.54204179 2.53749329 -4.1875 2.6875 C-5.56228516 2.80931641 -5.56228516 2.80931641 -6.96484375 2.93359375 C-9.21159732 3.01044976 -9.21159732 3.01044976 -10.25 4.25 C-12.58297433 4.29092937 -14.91705225 4.29241723 -17.25 4.25 C-11.5432871 1.17715459 -6.49223938 -0.02762655 0 0 Z " fill="#636363" transform="translate(345.25,459.75)"/>
<path d="M0 0 C0.66 0 1.32 0 2 0 C2.38750039 8.2236194 1.58716898 15.1768938 -1 23 C-1.99 23 -2.98 23 -4 23 C-2.25603865 2.25603865 -2.25603865 2.25603865 0 0 Z " fill="#232323" transform="translate(773,596)"/>
<path d="M0 0 C1.1446875 0.3403125 1.1446875 0.3403125 2.3125 0.6875 C2.6425 2.0075 2.9725 3.3275 3.3125 4.6875 C2.3225 5.0175 1.3325 5.3475 0.3125 5.6875 C-0.0175 7.3375 -0.3475 8.9875 -0.6875 10.6875 C-2.0075 10.3575 -3.3275 10.0275 -4.6875 9.6875 C-5.0175 10.3475 -5.3475 11.0075 -5.6875 11.6875 C-7.6875 6.9375 -7.6875 6.9375 -7.6875 4.6875 C-7.0275 4.6875 -6.3675 4.6875 -5.6875 4.6875 C-5.6875 4.0275 -5.6875 3.3675 -5.6875 2.6875 C-3.83710722 0.05799447 -3.27282212 -0.38056071 0 0 Z " fill="#151515" transform="translate(394.6875,333.3125)"/>
<path d="M0 0 C0.639375 0.33 1.27875 0.66 1.9375 1 C5.16146758 2.5631358 7.52684568 1.59547862 11.0625 1 C12.16722656 0.814375 13.27195312 0.62875 14.41015625 0.4375 C15.26480469 0.293125 16.11945312 0.14875 17 0 C14.32161662 3.33331654 11.08339159 4.29411268 7.125 5.6875 C5.91070313 6.12449219 4.69640625 6.56148437 3.4453125 7.01171875 C0.39029047 7.88804593 -1.85937785 8.22091829 -5 8 C-4.34 6.35 -3.68 4.7 -3 3 C-2.34 3 -1.68 3 -1 3 C-0.67 2.01 -0.34 1.02 0 0 Z " fill="#696969" transform="translate(700,672)"/>
<path d="M0 0 C0.33 0 0.66 0 1 0 C1.50196571 2.95801222 2.00165835 5.91637705 2.5 8.875 C2.64308594 9.71675781 2.78617187 10.55851563 2.93359375 11.42578125 C3.06894531 12.23144531 3.20429688 13.03710938 3.34375 13.8671875 C3.46943359 14.61081543 3.59511719 15.35444336 3.72460938 16.12060547 C4 18 4 18 4 20 C4.66 20 5.32 20 6 20 C6.33 21.65 6.66 23.3 7 25 C6.01 24.01 5.02 23.02 4 22 C2.68 23.32 1.36 24.64 0 26 C-0.66 25.67 -1.32 25.34 -2 25 C-1.34 24.01 -0.68 23.02 0 22 C0 21.01 0 20.02 0 19 C-1.65 19.66 -3.3 20.32 -5 21 C-4.01 19.515 -4.01 19.515 -3 18 C-2.01 18 -1.02 18 0 18 C0.97186056 14.22054228 0.79071237 11.77784799 0 8 C-0.08977729 5.32663189 -0.04535696 2.67606087 0 0 Z " fill="#A8A8A8" transform="translate(412,630)"/>
<path d="M0 0 C2.8723491 1.43617455 2.96735945 2.97440336 4 6 C7.51531488 18.64186824 8.72671784 30.90978473 9 44 C6.94953854 40.92430781 6.69878199 39.89363086 6.4375 36.359375 C6.36273437 35.45316406 6.28796875 34.54695313 6.2109375 33.61328125 C6.10652344 32.19595703 6.10652344 32.19595703 6 30.75 C5.53474999 24.53805078 4.81434277 18.95709208 3 13 C3 11.68 3 10.36 3 9 C2.34 9 1.68 9 1 9 C0.67 6.03 0.34 3.06 0 0 Z " fill="#BEBEBE" transform="translate(560,388)"/>
<path d="M0 0 C5.06563284 4.45161674 8.9929287 9.96717995 12 16 C11.67 16.99 11.34 17.98 11 19 C10.01 17.35 9.02 15.7 8 14 C6.35 14.33 4.7 14.66 3 15 C3 14.34 3 13.68 3 13 C3.66 13 4.32 13 5 13 C4.34 12.278125 3.68 11.55625 3 10.8125 C0.79297537 7.70887162 0.71029981 6.66953577 1 3 C0.67 2.01 0.34 1.02 0 0 Z " fill="#818181" transform="translate(544,359)"/>
<path d="M0 0 C0.66 0.33 1.32 0.66 2 1 C1.01 2.485 1.01 2.485 0 4 C6.6 4 13.2 4 20 4 C20 4.33 20 4.66 20 5 C18.72125 5.12117188 17.4425 5.24234375 16.125 5.3671875 C14.41663581 5.5361466 12.70830416 5.70543499 11 5.875 C10.16082031 5.95363281 9.32164062 6.03226562 8.45703125 6.11328125 C3.12680908 6.65043542 -1.82180108 7.63731607 -7 9 C-10 9.125 -10 9.125 -12 9 C-9.36095629 7.58622659 -6.92879371 6.62759865 -4 6 C-3.67 4.35 -3.34 2.7 -3 1 C-2.01 0.67 -1.02 0.34 0 0 Z " fill="#727272" transform="translate(428,323)"/>
<path d="M0 0 C0.68359375 1.7265625 0.68359375 1.7265625 1 4 C-2.18139152 9.93140792 -7.85531043 16.0860235 -14 19 C-16.23828125 18.6484375 -16.23828125 18.6484375 -18 18 C-17.236875 17.7525 -16.47375 17.505 -15.6875 17.25 C-12.73063402 15.8747135 -11.7942367 14.64863513 -10 12 C-9.34 11.67 -8.68 11.34 -8 11 C-8 10.34 -8 9.68 -8 9 C-7.34 9 -6.68 9 -6 9 C-5.67 8.34 -5.34 7.68 -5 7 C-4.01 6.67 -3.02 6.34 -2 6 C-0.77479736 2.99152582 -0.77479736 2.99152582 0 0 Z " fill="#8A8A8A" transform="translate(399,417)"/>
<path d="M0 0 C0.66 0.33 1.32 0.66 2 1 C1.319375 1.556875 0.63875 2.11375 -0.0625 2.6875 C-0.701875 3.450625 -1.34125 4.21375 -2 5 C-1.85974801 7.70705512 -1.85974801 7.70705512 -1 10 C-2.98 10.66 -4.96 11.32 -7 12 C-6.67 10.68 -6.34 9.36 -6 8 C-6.598125 8.309375 -7.19625 8.61875 -7.8125 8.9375 C-10 10 -10 10 -13 11 C-13 10.34 -13 9.68 -13 9 C-11.2614204 7.57831868 -9.45776019 6.23550882 -7.625 4.9375 C-6.62726563 4.22464844 -5.62953125 3.51179688 -4.6015625 2.77734375 C-2 1 -2 1 0 0 Z " fill="#777777" transform="translate(377,339)"/>
<path d="M0 0 C0.33 0 0.66 0 1 0 C1.10957031 1.05058594 1.21914063 2.10117187 1.33203125 3.18359375 C2.44768503 13.38166721 2.44768503 13.38166721 5.31640625 23.203125 C6.0422437 25.11104059 6.53847686 27.01325278 7 29 C6.21625 28.195625 5.4325 27.39125 4.625 26.5625 C2.28017144 24.01309583 2.28017144 24.01309583 0 23 C-1.43594928 20.12810144 -0.53040904 18.1531903 0 15 C0.06656312 12.36410042 0.09567411 9.75851404 0.0625 7.125 C0.05798828 6.43664062 0.05347656 5.74828125 0.04882812 5.0390625 C0.03716336 3.35933665 0.01923271 1.67965625 0 0 Z " fill="#DDDDDD" transform="translate(473,635)"/>
<path d="M0 0 C2.88164201 1.33586054 5.25276708 2.83637331 7.6875 4.875 C8.28949219 5.36742187 8.89148438 5.85984375 9.51171875 6.3671875 C11.20487499 8.22477098 11.60184921 9.54739113 12 12 C10.906875 11.67 9.81375 11.34 8.6875 11 C5.15421116 9.86913351 5.15421116 9.86913351 2 10 C1.67 9.34 1.34 8.68 1 8 C2.65 8 4.3 8 6 8 C6 7.34 6 6.68 6 6 C4.35 6.33 2.7 6.66 1 7 C1.20625 6.401875 1.4125 5.80375 1.625 5.1875 C2.30671915 2.71549154 2.30671915 2.71549154 0 0 Z " fill="#555555" transform="translate(440,484)"/>
<path d="M0 0 C2.64 0 5.28 0 8 0 C8.625 1.8125 8.625 1.8125 9 4 C8.01 5.485 8.01 5.485 7 7 C3.62496331 5.8141763 1.35277269 4.72426311 -1 2 C-0.67 1.34 -0.34 0.68 0 0 Z " fill="#3A3A3A" transform="translate(380,461)"/>
<path d="M0 0 C3.63542473 4.32788658 5.89250159 9.46250797 7 15 C6.67 14.34 6.34 13.68 6 13 C5.01 13 4.02 13 3 13 C2.67 13.99 2.34 14.98 2 16 C1.01 15.67 0.02 15.34 -1 15 C-1 13.35 -1 11.7 -1 10 C-0.34 9.67 0.32 9.34 1 9 C0.67 6.03 0.34 3.06 0 0 Z " fill="#6D6D6D" transform="translate(313,620)"/>
<path d="M0 0 C0.99 0.495 0.99 0.495 2 1 C2 1.66 2 2.32 2 3 C2.99 2.67 3.98 2.34 5 2 C5.33 2.99 5.66 3.98 6 5 C6.66 5 7.32 5 8 5 C8 5.66 8 6.32 8 7 C7.34 7 6.68 7 6 7 C6.33 8.03125 6.66 9.0625 7 10.125 C7.9715192 13.48426709 8.17116771 16.49106202 8 20 C6.38308921 16.93220051 5.15979309 13.82894852 4 10.5625 C2.73521379 7.01022936 1.42014097 3.49329319 0 0 Z " fill="#898989" transform="translate(676,479)"/>
<path d="M0 0 C7.49006655 0.49933777 17.48039395 1.48039395 23 7 C20.36 7.33 17.72 7.66 15 8 C14.76023437 7.36320312 14.52046875 6.72640625 14.2734375 6.0703125 C13.19069706 3.83534522 13.19069706 3.83534522 10.9765625 3.2421875 C10.20054687 3.12101562 9.42453125 2.99984375 8.625 2.875 C5.38455087 2.3439565 2.88327939 1.59304478 0 0 Z " fill="#999999" transform="translate(482,324)"/>
<path d="M0 0 C0.99 0.33 1.98 0.66 3 1 C3 1.66 3 2.32 3 3 C2.01 3.33 1.02 3.66 0 4 C-1.21869929 6.50447516 -1.21869929 6.50447516 -2 9 C-2.99 9 -3.98 9 -5 9 C-5 9.66 -5 10.32 -5 11 C-5.66 11 -6.32 11 -7 11 C-7.66 11.66 -8.32 12.32 -9 13 C-9.33 11.68 -9.66 10.36 -10 9 C-6.7 6.03 -3.4 3.06 0 0 Z " fill="#191919" transform="translate(756,638)"/>
<path d="M0 0 C1.98 0.99 1.98 0.99 4 2 C4 2.66 4 3.32 4 4 C5.32 4.66 6.64 5.32 8 6 C8 6.66 8 7.32 8 8 C8.66 8 9.32 8 10 8 C11.38938077 9.96147874 12.7260411 11.96166576 14 14 C13.67 14.66 13.34 15.32 13 16 C11.828125 14.50260417 10.65625 13.00520833 9.484375 11.5078125 C8.05860737 9.88206935 8.05860737 9.88206935 5.96875 9.0625 C3.46496525 7.71125109 2.90775286 6.43859561 1.75 3.875 C1.41484375 3.15054687 1.0796875 2.42609375 0.734375 1.6796875 C0.49203125 1.12539063 0.2496875 0.57109375 0 0 Z " fill="#9D9D9D" transform="translate(708,472)"/>
<path d="M0 0 C0.66 0.33 1.32 0.66 2 1 C1.01 2.32 0.02 3.64 -1 5 C-0.67 5.66 -0.34 6.32 0 7 C-0.7425 7.28875 -1.485 7.5775 -2.25 7.875 C-4.92356643 8.92846602 -4.92356643 8.92846602 -7.125 10.0625 C-9 11 -9 11 -12 12 C-10.47940093 8.11985064 -8.13921469 6.26093438 -4.875 3.75 C-3.96492188 3.04359375 -3.05484375 2.3371875 -2.1171875 1.609375 C-1.41851562 1.07828125 -0.71984375 0.5471875 0 0 Z " fill="#595959" transform="translate(284,484)"/>
<path d="M0 0 C3.96 0 7.92 0 12 0 C12 0.99 12 1.98 12 3 C12.94875 3.28875 13.8975 3.5775 14.875 3.875 C18 5 18 5 20 7 C12.90116066 5.85210257 6.58341381 3.88549626 0 1 C0 0.67 0 0.34 0 0 Z " fill="#B9B9B9" transform="translate(571,674)"/>
<path d="M0 0 C1.9375 0.3125 1.9375 0.3125 4 1 C4.33 1.99 4.66 2.98 5 4 C3.5625 6.1875 3.5625 6.1875 2 8 C-0.86724686 7.42655063 -1.8614515 7.1385485 -4 5 C-3.34 5 -2.68 5 -2 5 C-2 4.34 -2 3.68 -2 3 C-1.34 3 -0.68 3 0 3 C0 2.01 0 1.02 0 0 Z " fill="#151515" transform="translate(725,659)"/>
<path d="M0 0 C0.8971875 0.309375 0.8971875 0.309375 1.8125 0.625 C0.60868552 3.11861571 -0.64178722 5.30643083 -2.1875 7.625 C-2.8475 7.295 -3.5075 6.965 -4.1875 6.625 C-3.8575 6.295 -3.5275 5.965 -3.1875 5.625 C-5.1675 5.955 -7.1475 6.285 -9.1875 6.625 C-8.5275 5.635 -7.8675 4.645 -7.1875 3.625 C-6.5275 3.625 -5.8675 3.625 -5.1875 3.625 C-5.1875 2.965 -5.1875 2.305 -5.1875 1.625 C-2.1875 -0.375 -2.1875 -0.375 0 0 Z " fill="#AEAEAE" transform="translate(521.1875,660.375)"/>
<path d="M0 0 C2 1.625 2 1.625 4 4 C4.31452272 7.14522722 4.42041821 9.15916359 3 12 C2.01 11.67 1.02 11.34 0 11 C-1.1875 7.4375 -1.1875 7.4375 -2 4 C-1.34 3.67 -0.68 3.34 0 3 C0 2.01 0 1.02 0 0 Z " fill="#616161" transform="translate(460,507)"/>
<path d="M0 0 C0.66 0.33 1.32 0.66 2 1 C4.204364 1.22950319 6.41392173 1.41075933 8.625 1.5625 C9.81351562 1.64628906 11.00203125 1.73007812 12.2265625 1.81640625 C13.59941406 1.90728516 13.59941406 1.90728516 15 2 C15 2.33 15 2.66 15 3 C13.60587891 3.05607422 13.60587891 3.05607422 12.18359375 3.11328125 C4.30846597 3.34406229 4.30846597 3.34406229 -3.125 5.625 C-6 7 -6 7 -8.4375 6.6875 C-8.953125 6.460625 -9.46875 6.23375 -10 6 C-8.865625 5.731875 -7.73125 5.46375 -6.5625 5.1875 C-5.386875 4.795625 -4.21125 4.40375 -3 4 C-2.67 3.01 -2.34 2.02 -2 1 C-1.34 0.67 -0.68 0.34 0 0 Z " fill="#B1B1B1" transform="translate(363,461)"/>
<path d="M0 0 C0.33 0.66 0.66 1.32 1 2 C0.31292969 2.47050781 -0.37414062 2.94101562 -1.08203125 3.42578125 C-2.43361328 4.35970703 -2.43361328 4.35970703 -3.8125 5.3125 C-4.70582031 5.92738281 -5.59914063 6.54226563 -6.51953125 7.17578125 C-8.56100746 8.67715037 -10.28462787 10.14785401 -12 12 C-12.99 11.67 -13.98 11.34 -15 11 C-14.34 10.34 -13.68 9.68 -13 9 C-13 8.34 -13 7.68 -13 7 C-12.01 6.67 -11.02 6.34 -10 6 C-9.67 5.34 -9.34 4.68 -9 4 C-7.66666667 3.66666667 -6.33333333 3.33333333 -5 3 C-3.31008021 2.0398183 -1.63790712 1.04644066 0 0 Z " fill="#A8A8A8" transform="translate(747,652)"/>
<path d="M0 0 C0 1.98 0 3.96 0 6 C-3.3 5.67 -6.6 5.34 -10 5 C-4.03225806 0 -4.03225806 0 0 0 Z " fill="#656565" transform="translate(740,651)"/>
<path d="M0 0 C2 1 2 1 3 3 C2.67 3.66 2.34 4.32 2 5 C2.99 4.67 3.98 4.34 5 4 C5.33 4.99 5.66 5.98 6 7 C0.72 6.34 -4.56 5.68 -10 5 C-10 4.67 -10 4.34 -10 4 C-7.03 4 -4.06 4 -1 4 C-0.67 2.68 -0.34 1.36 0 0 Z " fill="#7C7C7C" transform="translate(650,457)"/>
<path d="M0 0 C0.33 0.66 0.66 1.32 1 2 C1.66 2.33 2.32 2.66 3 3 C2.01 3.495 2.01 3.495 1 4 C1.99 4.66 2.98 5.32 4 6 C2.57140593 7.03325986 1.13177617 8.05127634 -0.3125 9.0625 C-1.11300781 9.63097656 -1.91351563 10.19945312 -2.73828125 10.78515625 C-3.48464844 11.18605469 -4.23101562 11.58695313 -5 12 C-5.99 11.67 -6.98 11.34 -8 11 C-7.401875 10.731875 -6.80375 10.46375 -6.1875 10.1875 C-3.95406717 8.97506504 -2.50061801 8.05347727 -1 6 C-1.22757731 3.83700789 -1.22757731 3.83700789 -2 2 C-1.34 2 -0.68 2 0 2 C0 1.34 0 0.68 0 0 Z " fill="#747474" transform="translate(390,664)"/>
<path d="M0 0 C-1.73058971 2.13477349 -2.62928908 2.93110142 -5.375 3.44140625 C-6.24125 3.48136719 -7.1075 3.52132813 -8 3.5625 C-11.68903651 3.74365804 -12.81190086 3.87460058 -16 6 C-18.1875 5.625 -18.1875 5.625 -20 5 C-13.82329655 1.51570575 -7.13853153 -0.46055042 0 0 Z " fill="#AAAAAA" transform="translate(629,450)"/>
<path d="M0 0 C3.3 0.99 6.6 1.98 10 3 C9.67 4.65 9.34 6.3 9 8 C7.35 7.67 5.7 7.34 4 7 C4 5.68 4 4.36 4 3 C3.01 3 2.02 3 1 3 C0.67 2.01 0.34 1.02 0 0 Z " fill="#646464" transform="translate(342,655)"/>
<path d="M0 0 C0.33 0.66 0.66 1.32 1 2 C2.65 1.34 4.3 0.68 6 0 C6 3 6 3 4.46875 4.60546875 C3.8190625 5.12753906 3.169375 5.64960938 2.5 6.1875 C1.8503125 6.71730469 1.200625 7.24710937 0.53125 7.79296875 C0.0259375 8.19128906 -0.479375 8.58960938 -1 9 C-1.125 2.25 -1.125 2.25 0 0 Z " fill="#636363" transform="translate(337,473)"/>
<path d="M0 0 C0.33 1.32 0.66 2.64 1 4 C-1.64 6.31 -4.28 8.62 -7 11 C-7.66 10.67 -8.32 10.34 -9 10 C-8.34 9.443125 -7.68 8.88625 -7 8.3125 C-4.74507789 6.15937692 -4.74507789 6.15937692 -4.75 3.25 C-4.8325 2.5075 -4.915 1.765 -5 1 C-3 0 -3 0 0 0 Z " fill="#787878" transform="translate(399,337)"/>
<path d="M0 0 C1.98 0 3.96 0 6 0 C7.32 2.64 8.64 5.28 10 8 C6.01328937 6.63312778 3.11505367 4.84804907 0 2 C0 1.34 0 0.68 0 0 Z " fill="#858585" transform="translate(428,668)"/>
<path d="M0 0 C2.31 0.33 4.62 0.66 7 1 C6.67 1.66 6.34 2.32 6 3 C6.66 3.66 7.32 4.32 8 5 C7.01 5.33 6.02 5.66 5 6 C4.01 6.495 4.01 6.495 3 7 C1.68 5.68 0.36 4.36 -1 3 C-0.34 3 0.32 3 1 3 C0.67 2.01 0.34 1.02 0 0 Z " fill="#555555" transform="translate(284,665)"/>
<path d="M0 0 C0 3 0 3 -1 5 C-0.34 5.33 0.32 5.66 1 6 C0.01 6.99 -0.98 7.98 -2 9 C-2.99 8.67 -3.98 8.34 -5 8 C-5.33 8.99 -5.66 9.98 -6 11 C-6.33 10.34 -6.66 9.68 -7 9 C-4.69 6.03 -2.38 3.06 0 0 Z " fill="#8D8D8D" transform="translate(355,358)"/>
<path d="M0 0 C-0.33 0.66 -0.66 1.32 -1 2 C-3.32156597 2.40729228 -5.6568787 2.74438677 -8 3 C-8 2.34 -8 1.68 -8 1 C-8.66 0.67 -9.32 0.34 -10 0 C-5.91847062 -2.09907226 -4.08152938 -2.09907226 0 0 Z " fill="#5E5E5E" transform="translate(380,677)"/>
<path d="M0 0 C3.3125 0.125 3.3125 0.125 7 1 C8.9375 4.0625 8.9375 4.0625 10 7 C5.56541027 5.6062718 3.12621626 3.39417765 0 0 Z " fill="#808080" transform="translate(547,660)"/>
<path d="M0 0 C0.66 0 1.32 0 2 0 C1.34 2.97 0.68 5.94 0 9 C-0.99 9 -1.98 9 -3 9 C-2.5020163 5.26512223 -2.12508244 3.18762365 0 0 Z " fill="#161616" transform="translate(772,610)"/>
<path d="M0 0 C-0.33 0.99 -0.66 1.98 -1 3 C-1 3.99 -1 4.98 -1 6 C-2.65 6.66 -4.3 7.32 -6 8 C-5.34 6.68 -4.68 5.36 -4 4 C-4.66 3.34 -5.32 2.68 -6 2 C-6 1.34 -6 0.68 -6 0 C-2.25 -1.125 -2.25 -1.125 0 0 Z " fill="#212121" transform="translate(414,327)"/>
<path d="M0 0 C-0.99 1.485 -0.99 1.485 -2 3 C-2.33 3.66 -2.66 4.32 -3 5 C-4.98 4.34 -6.96 3.68 -9 3 C-5.83583464 -0.30799106 -4.50236011 -1.35070803 0 0 Z " fill="#171717" transform="translate(408,654)"/>
<path d="M0 0 C0.66 0.33 1.32 0.66 2 1 C0.85865673 3.00256574 -0.28818633 5.00199797 -1.4375 7 C-2.39462891 8.670625 -2.39462891 8.670625 -3.37109375 10.375 C-3.90863281 11.24125 -4.44617188 12.1075 -5 13 C-5.33 13 -5.66 13 -6 13 C-6 11.35 -6 9.7 -6 8 C-5.01 7.67 -4.02 7.34 -3 7 C-3 6.01 -3 5.02 -3 4 C-2.34 4 -1.68 4 -1 4 C-0.67 2.68 -0.34 1.36 0 0 Z " fill="#A1A1A1" transform="translate(583,488)"/>
<path d="M0 0 C1.11375 0.185625 2.2275 0.37125 3.375 0.5625 C6.82568861 1.31680657 6.82568861 1.31680657 9 0 C10.32 2.31 11.64 4.62 13 7 C12.43796875 6.71382813 11.8759375 6.42765625 11.296875 6.1328125 C8.97129077 4.98584069 6.62229799 3.92160206 4.25 2.875 C3.45078125 2.52179688 2.6515625 2.16859375 1.828125 1.8046875 C1.22484375 1.53914063 0.6215625 1.27359375 0 1 C0 0.67 0 0.34 0 0 Z " fill="#969696" transform="translate(470,332)"/>
<path d="M0 0 C4.75 1.875 4.75 1.875 7 3 C7 3.66 7 4.32 7 5 C5.35 5.33 3.7 5.66 2 6 C1.01 4.35 0.02 2.7 -1 1 C-0.67 0.67 -0.34 0.34 0 0 Z " fill="#777777" transform="translate(433,479)"/>
<path d="M0 0 C1.32 0.99 2.64 1.98 4 3 C2.25 8.75 2.25 8.75 0 11 C0 9.02 0 7.04 0 5 C-0.66 4.67 -1.32 4.34 -2 4 C-1.34 2.68 -0.68 1.36 0 0 Z " fill="#6C6C6C" transform="translate(380,353)"/>
<path d="M0 0 C0.66 0.33 1.32 0.66 2 1 C2 1.66 2 2.32 2 3 C2.99 3.33 3.98 3.66 5 4 C4.34 5.32 3.68 6.64 3 8 C1.02 5.69 -0.96 3.38 -3 1 C-2.01 0.67 -1.02 0.34 0 0 Z " fill="#606060" transform="translate(538,648)"/>
<path d="M0 0 C0.68359375 1.765625 0.68359375 1.765625 1 4 C-0.21484375 5.921875 -0.21484375 5.921875 -1.9375 7.75 C-2.50339844 8.36359375 -3.06929688 8.9771875 -3.65234375 9.609375 C-4.31943359 10.29773438 -4.31943359 10.29773438 -5 11 C-5.33 10.01 -5.66 9.02 -6 8 C-4.78515625 5.95703125 -4.78515625 5.95703125 -3.0625 3.8125 C-2.49660156 3.09707031 -1.93070312 2.38164062 -1.34765625 1.64453125 C-0.90292969 1.10183594 -0.45820313 0.55914062 0 0 Z " fill="#A7A7A7" transform="translate(262,507)"/>
<path d="M0 0 C0 1.98 0 3.96 0 6 C-1.65 5.67 -3.3 5.34 -5 5 C-5.33 4.01 -5.66 3.02 -6 2 C-3 0 -3 0 0 0 Z " fill="#1B1B1B" transform="translate(600,462)"/>
<path d="M0 0 C0.66 0 1.32 0 2 0 C2.66 1.65 3.32 3.3 4 5 C2.824375 5.2165625 2.824375 5.2165625 1.625 5.4375 C-0.96421018 5.87798925 -0.96421018 5.87798925 -3 7 C-3.33 5.68 -3.66 4.36 -4 3 C-2.68 2.67 -1.36 2.34 0 2 C0 1.34 0 0.68 0 0 Z " fill="#636363" transform="translate(380,392)"/>
<path d="M0 0 C0.99 0.4021875 0.99 0.4021875 2 0.8125 C5.64939067 2.25705047 9.32245433 3.62871178 13 5 C10.07175348 5.97608217 8.04386724 6.08226668 5 6 C4.731875 5.360625 4.46375 4.72125 4.1875 4.0625 C3.11332248 1.66868314 3.11332248 1.66868314 0 1 C0 0.67 0 0.34 0 0 Z " fill="#A7A7A7" transform="translate(619,653)"/>
<path d="M0 0 C0.66 0 1.32 0 2 0 C2 0.66 2 1.32 2 2 C2.66 2 3.32 2 4 2 C5.6875 4.3125 5.6875 4.3125 7 7 C6.67 7.99 6.34 8.98 6 10 C5.38125 9.195625 4.7625 8.39125 4.125 7.5625 C2.25835959 4.96125481 2.25835959 4.96125481 0 4 C-0.33 3.34 -0.66 2.68 -1 2 C-0.67 1.34 -0.34 0.68 0 0 Z " fill="#7B7B7B" transform="translate(473,654)"/>
<path d="M0 0 C1.98 0.66 3.96 1.32 6 2 C5.01 2.99 4.02 3.98 3 5 C3.66 5.66 4.32 6.32 5 7 C3.125 6.75 3.125 6.75 1 6 C-0.3125 4.0625 -0.3125 4.0625 -1 2 C-0.67 1.34 -0.34 0.68 0 0 Z " fill="#1D1D1D" transform="translate(417,471)"/>
<path d="M0 0 C3.36591866 1.44253657 5.51047079 3.33264727 8 6 C7.67 6.66 7.34 7.32 7 8 C6.34 7.67 5.68 7.34 5 7 C4.67 7.66 4.34 8.32 4 9 C4 8.34 4 7.68 4 7 C3.34 7 2.68 7 2 7 C2 5.68 2 4.36 2 3 C1.34 2.67 0.68 2.34 0 2 C0 1.34 0 0.68 0 0 Z " fill="#898989" transform="translate(536,351)"/>
<path d="M0 0 C2.375 -0.125 2.375 -0.125 5 0 C7 2 7 2 8 5 C7.67 5.66 7.34 6.32 7 7 C5.83040013 6.02433888 4.66438823 5.044375 3.5 4.0625 C2.8503125 3.51722656 2.200625 2.97195313 1.53125 2.41015625 C1.0259375 1.94480469 0.520625 1.47945313 0 1 C0 0.67 0 0.34 0 0 Z " fill="#787878" transform="translate(483,339)"/>
<path d="M0 0 C1.5 1.375 1.5 1.375 3 3 C3 3.66 3 4.32 3 5 C0.1875 6.5625 0.1875 6.5625 -3 8 C-3.99 7.67 -4.98 7.34 -6 7 C-4.35 6.34 -2.7 5.68 -1 5 C-1.33 4.01 -1.66 3.02 -2 2 C-1.34 2 -0.68 2 0 2 C0 1.34 0 0.68 0 0 Z " fill="#878787" transform="translate(503,673)"/>
<path d="M0 0 C0.99 0.99 1.98 1.98 3 3 C3.99 2.67 4.98 2.34 6 2 C4.25 6.875 4.25 6.875 2 8 C1.67 7.01 1.34 6.02 1 5 C0.01 5 -0.98 5 -2 5 C-1.34 3.35 -0.68 1.7 0 0 Z " fill="#A0A0A0" transform="translate(762,627)"/>
<path d="M0 0 C0.33 0.66 0.66 1.32 1 2 C-0.98 4.97 -0.98 4.97 -3 8 C-3.33 7.01 -3.66 6.02 -4 5 C-4.66 4.67 -5.32 4.34 -6 4 C-4.03617993 2.49440461 -2.21736634 1.10868317 0 0 Z " fill="#7F7F7F" transform="translate(327,491)"/>
<path d="M0 0 C2.95409701 1.37154504 5.44008376 2.98863724 8 5 C7.67 5.66 7.34 6.32 7 7 C5.02 7 3.04 7 1 7 C1.20625 6.401875 1.4125 5.80375 1.625 5.1875 C2.30671915 2.71549154 2.30671915 2.71549154 0 0 Z " fill="#969696" transform="translate(440,484)"/>
<path d="M0 0 C3.71888239 0.50712033 6.73454239 1.11608215 10 3 C9.01 3 8.02 3 7 3 C7 3.66 7 4.32 7 5 C5.68 4.67 4.36 4.34 3 4 C3 3.01 3 2.02 3 1 C2.01 0.67 1.02 0.34 0 0 Z " fill="#202020" transform="translate(393,463)"/>
<path d="M0 0 C0.598125 0.20625 1.19625 0.4125 1.8125 0.625 C0 2.625 0 2.625 -2.1875 4.625 C-3.1775 4.625 -4.1675 4.625 -5.1875 4.625 C-5.1875 3.635 -5.1875 2.645 -5.1875 1.625 C-2.1875 -0.375 -2.1875 -0.375 0 0 Z " fill="#202020" transform="translate(517.1875,665.375)"/>
<path d="M0 0 C1.5625 1.0625 1.5625 1.0625 3 3 C2.8125 6.625 2.8125 6.625 2 10 C1.01 10.495 1.01 10.495 0 11 C0.66 8.69 1.32 6.38 2 4 C0.02 4.99 0.02 4.99 -2 6 C-1.34 4.02 -0.68 2.04 0 0 Z " fill="#757575" transform="translate(768,617)"/>
<path d="M0 0 C0.25 2.8125 0.25 2.8125 0 6 C-2 7.875 -2 7.875 -4 9 C-3.4140625 2.84765625 -3.4140625 2.84765625 -3 1 C-1 0 -1 0 0 0 Z " fill="#2D2D2D" transform="translate(774,604)"/>
<path d="M0 0 C0.99 0.99 1.98 1.98 3 3 C0.64046906 5.35953094 -0.77895617 5.49141413 -4 6 C-4 5.01 -4 4.02 -4 3 C-2.68 2.67 -1.36 2.34 0 2 C0 1.34 0 0.68 0 0 Z " fill="#272727" transform="translate(719,666)"/>
<path d="M0 0 C1.32 0.66 2.64 1.32 4 2 C3.34 3.32 2.68 4.64 2 6 C2 5.34 2 4.68 2 4 C0.68 4.33 -0.64 4.66 -2 5 C-1.125 1.125 -1.125 1.125 0 0 Z " fill="#212121" transform="translate(347,372)"/>
<path d="M0 0 C2.97 0.495 2.97 0.495 6 1 C5.67 2.32 5.34 3.64 5 5 C3.68 5 2.36 5 1 5 C0.67 3.35 0.34 1.7 0 0 Z " fill="#282828" transform="translate(626,658)"/>
<path d="M0 0 C2.5 2.3125 2.5 2.3125 5 5 C5 5.99 5 6.98 5 8 C3.68 7.67 2.36 7.34 1 7 C0.67 4.69 0.34 2.38 0 0 Z " fill="#A2A2A2" transform="translate(586,623)"/>
<path d="M0 0 C2.64 0 5.28 0 8 0 C7.67 0.99 7.34 1.98 7 3 C7.33 3.66 7.66 4.32 8 5 C4.62496331 3.8141763 2.35277269 2.72426311 0 0 Z " fill="#717171" transform="translate(351,430)"/>
<path d="M0 0 C1.98 0 3.96 0 6 0 C6.66 1.32 7.32 2.64 8 4 C4.31245243 3.50168276 2.39509338 2.89932357 0 0 Z " fill="#8C8C8C" transform="translate(291,673)"/>
<path d="M0 0 C0.66 0.33 1.32 0.66 2 1 C-1.96 4.465 -1.96 4.465 -6 8 C-6 5 -6 5 -4.6875 3.61328125 C-3.125 2.40885417 -1.5625 1.20442708 0 0 Z " fill="#DBDBDB" transform="translate(279,488)"/>
<path d="M0 0 C3.96 0 7.92 0 12 0 C10.515 1.485 10.515 1.485 9 3 C6.73828125 2.85546875 6.73828125 2.85546875 4.3125 2.1875 C3.50425781 1.97480469 2.69601562 1.76210938 1.86328125 1.54296875 C0.94095703 1.27419922 0.94095703 1.27419922 0 1 C0 0.67 0 0.34 0 0 Z " fill="#6C6C6C" transform="translate(571,674)"/>
<path d="M0 0 C2 2 2 2 2 5 C-0.31 4.34 -2.62 3.68 -5 3 C-3 1 -3 1 0 0 Z " fill="#101010" transform="translate(501,673)"/>
<path d="M0 0 C0.66 0.33 1.32 0.66 2 1 C0.35 2.65 -1.3 4.3 -3 6 C-3.33 4.68 -3.66 3.36 -4 2 C-2.125 0.9375 -2.125 0.9375 0 0 Z " fill="#454545" transform="translate(409,654)"/>
</svg>
